Coordinates
version=1
nRows=24
nColumns=22
inDegrees=yes

Units are S.I. units (second, meters, Newtons, ...)
If the header above contains a line with 'inDegrees', this indicates whether rotational values are in degrees (yes) or radians (no).

endheader
time	pelvis_tilt	pelvis_list	pelvis_rotation	pelvis_tx	pelvis_ty	pelvis_tz	hip_flexion_r	hip_adduction_r	hip_rotation_r	knee_angle_r	ankle_angle_r	subtalar_angle_r	hip_flexion_l	hip_adduction_l	hip_rotation_l	knee_angle_l	ankle_angle_l	subtalar_angle_l	lumbar_extension	lumbar_bending	lumbar_rotation
      1.79000000	     -0.16359831	      0.48339925	    -26.97131894	     -0.98363108	      0.90510781	     -0.40428016	     -1.36251241	     -3.62468647	     -6.82806971	     -9.88911595	     18.17901604	      0.61155888	      3.96837059	      2.08806351	     -6.87282492	    -17.40250677	     15.65964497	     -3.30514950	     -7.59226830	     -2.41074392	      4.40025189
      1.80000000	     -0.18324383	      0.33078195	    -27.16806042	     -0.98298463	      0.90516756	     -0.40546831	     -0.97072640	     -3.60482333	     -6.41063360	    -10.63722897	     18.17399707	      0.56649714	      4.06675405	      2.03974051	     -6.89127495	    -17.70253570	     15.76391384	     -3.51779951	     -7.77093321	     -2.26101181	      4.47624492
      1.81000000	     -0.20267682	      0.16853979	    -27.38204559	     -0.98236454	      0.90526146	     -0.40662008	     -0.54133698	     -3.57166849	     -5.96958884	    -11.45418252	     18.16386421	      0.47508974	      4.14202321	      1.98611948	     -6.90338822	    -17.97301857	     15.85557573	     -3.73980267	     -7.95761651	     -2.10707594	      4.59277351
      1.82000000	     -0.20058792	     -0.00112677	    -27.62680402	     -0.98175593	      0.90541923	     -0.40769910	     -0.09643178	     -3.53547176	     -5.45811906	    -12.33655977	     18.14099418	      0.37848689	      4.15613322	      1.93294170	     -6.97236285	    -18.18424935	     15.94387580	     -3.91375045	     -8.17038399	     -1.95877644	      4.70043327
      1.83000000	     -0.22211325	     -0.16862618	    -27.88606956	     -0.98119833	      0.90558001	     -0.40874133	      0.41867796	     -3.47997659	     -4.89980372	    -13.29437198	     18.10014509	      0.21148536	      4.17776653	      1.87149397	     -7.03743373	    -18.36798854	     16.00460778	     -4.12375915	     -8.36375178	     -1.80533771	      4.82096552
      1.84000000	     -0.22831778	     -0.34021050	    -28.16819482	     -0.98067986	      0.90579447	     -0.40973215	      0.95896830	     -3.41785031	     -4.29357639	    -14.31917120	     18.03885294	      0.02163300	      4.15794840	      1.81251229	     -7.12945453	    -18.51223998	     16.05958996	     -4.31306771	     -8.58311426	     -1.66006154	      4.95282897
      1.85000000	     -0.25218291	     -0.51148551	    -28.44647399	     -0.98015618	      0.90602134	     -0.41067972	      1.55647404	     -3.33417926	     -3.67590266	    -15.42100923	     17.95127643	     -0.24174113	      4.12316610	      1.74424900	     -7.23287104	    -18.60207235	     16.10725486	     -4.51517617	     -8.78180886	     -1.50614311	      5.04966400
      1.86000000	     -0.23732239	     -0.68968835	    -28.74511430	     -0.97966085	      0.90633008	     -0.41157091	      2.14766957	     -3.24856357	     -3.00538717	    -16.57753129	     17.83233218	     -0.42367431	      4.02726715	      1.68540538	     -7.37532039	    -18.66104439	     16.14708882	     -4.64946158	     -9.03271972	     -1.37218524	      5.15317360
      1.87000000	     -0.25105807	     -0.86613916	    -29.03854089	     -0.97918883	      0.90662363	     -0.41244529	      2.81201778	     -3.13729178	     -2.34959619	    -17.81283459	     17.69549240	     -0.65136636	      3.94846722	      1.61118526	     -7.51991307	    -18.69871252	     16.17225114	     -4.79140848	     -9.25882581	     -1.22289430	      5.23059436
      1.88000000	     -0.26824965	     -1.04274744	    -29.32069795	     -0.97871952	      0.90692560	     -0.41329209	      3.51557588	     -3.01067475	     -1.71877797	    -19.11408613	     17.53590819	     -0.88613033	      3.86439670	      1.53074079	     -7.66844763	    -18.72206151	     16.19309522	     -4.91622118	     -9.48514433	     -1.07250529	      5.28079353
      1.89000000	     -0.29054580	     -1.21421622	    -29.58697922	     -0.97824846	      0.90722309	     -0.41411957	      4.26084049	     -2.87437922	     -1.12911465	    -20.47468890	     17.35557255	     -1.11751997	      3.78444549	      1.44761452	     -7.82321814	    -18.73980700	     16.21235506	     -5.01859367	     -9.70580191	     -0.92473627	      5.30766459
      1.90000000	     -0.31245506	     -1.38251675	    -29.82415249	     -0.97775343	      0.90751356	     -0.41494495	      5.03092500	     -2.73507313	     -0.60687327	    -21.87583953	     17.16437230	     -1.33360465	      3.70729973	      1.36297143	     -7.97087187	    -18.75972069	     16.22891927	     -5.09310403	     -9.92745427	     -0.77633256	      5.29197892
      1.91000000	     -0.33240980	     -1.54286227	    -30.03343820	     -0.97723205	      0.90778875	     -0.41575650	      5.82383217	     -2.60125503	     -0.16369299	    -23.30653125	     16.96665989	     -1.53637692	      3.63243151	      1.28160110	     -8.11430274	    -18.78026467	     16.24772489	     -5.14100906	    -10.14711535	     -0.63658777	      5.24193617
      1.92000000	     -1.18146565	     -0.93507393	    -30.88928280	     -0.97931874	      0.90624022	     -0.41766892	      8.51982979	     -2.95252082	     -0.64433491	    -25.38066444	     16.72101677	     -1.22478063	      5.14488979	      1.45898263	     -8.66315438	    -19.23362847	     16.19119187	     -5.36111412	     -9.43556773	     -0.76578280	      5.76819572
      1.93000000	     -1.15602318	     -1.03323877	    -31.04066848	     -0.97871567	      0.90641720	     -0.41843262	      9.32098203	     -2.91132183	     -0.36119867	    -26.80429244	     16.58857900	     -1.34211741	      5.05293539	      1.45505901	     -8.76629515	    -19.23960167	     16.20539742	     -5.39222405	     -9.65766469	     -0.71295336	      5.65246168
      1.94000000	     -1.12380100	     -1.13709524	    -31.12269725	     -0.97794655	      0.90658067	     -0.41920475	     10.08413652	     -2.88196125	     -0.17858731	    -28.16864754	     16.49521119	     -1.59261758	      4.94787403	      1.45072741	     -8.83548464	    -19.24625871	     16.22285834	     -5.39601245	     -9.87224136	     -0.64721744	      5.47662956
      1.95000000	     -1.06061308	     -1.26347657	    -31.13623713	     -0.97699121	      0.90678147	     -0.41997475	     10.75713643	     -2.86535494	     -0.09049924	    -29.43037548	     16.44971834	     -2.03337907	      4.79621970	      1.44412033	     -8.87678126	    -19.25376010	     16.22726315	     -5.38907097	    -10.11277843	     -0.56250912	      5.24030291
      1.96000000	     -0.92378793	     -1.39431783	    -31.09568604	     -0.97583241	      0.90706689	     -0.42073886	     11.31406589	     -2.90542131	     -0.06596080	    -30.58685044	     16.48956826	     -2.36432609	      4.52756842	      1.49612412	     -8.80464983	    -19.18967517	     16.22749702	     -5.36436606	    -10.40960882	     -0.50551930	      4.97575945
      1.97000000	     -0.77484684	     -1.54805507	    -30.99469668	     -0.97451636	      0.90738103	     -0.42148858	     11.79078967	     -2.95378721	     -0.13979297	    -31.60567355	     16.55471922	     -2.83339627	      4.23435260	      1.53210175	     -8.70568800	    -19.13678365	     16.21597115	     -5.33830236	    -10.71360937	     -0.42080103	      4.66653432
      1.98000000	     -0.61128893	     -1.73440837	    -30.85169443	     -0.97307996	      0.90775511	     -0.42221271	     12.17651788	     -2.99958321	     -0.29343754	    -32.46824943	     16.64004308	     -3.35623512	      3.90536249	      1.54555477	     -8.57334686	    -19.08939124	     16.19501982	     -5.30997530	    -11.03826367	     -0.30097788	      4.33880373
      1.99000000	     -0.45672358	     -1.95421458	    -30.69650833	     -0.97157976	      0.90816956	     -0.42287544	     12.49938849	     -3.02092701	     -0.49809331	    -33.16814928	     16.71385816	     -3.99682311	      3.57046600	      1.51121603	     -8.47827344	    -19.06364334	     16.16290960	     -5.27980084	    -11.36163790	     -0.13664864	      4.02204613
      2.00000000	     -0.31403668	     -2.15506817	    -30.51168534	     -0.97002085	      0.90856796	     -0.42354509	     12.80975492	     -3.07790376	     -0.78407952	    -33.73977072	     16.80134898	     -4.34421890	      3.24481134	      1.50100870	     -8.27387192	    -19.01702715	     16.14626377	     -5.24163018	    -11.65336412	      0.02431672	      3.70616450
      2.01000000	     -0.18800166	     -2.38863994	    -30.32281436	     -0.96844572	      0.90901092	     -0.42414711	     13.06446271	     -3.10159745	     -1.11884045	    -34.13801807	     16.85616852	     -4.82567623	      2.92111586	      1.43749202	     -8.10590208	    -18.98669669	     16.11770511	     -5.19952825	    -11.94195406	      0.22831127	      3.41250664
      2.02000000	     -0.09618987	     -2.60447108	    -30.13854308	     -0.96684758	      0.90941816	     -0.42467413	     13.32898021	     -3.12308632	     -1.46704242	    -34.40523210	     16.86246379	     -5.17466300	      2.63035064	      1.36207453	     -7.98003400	    -18.94674727	     16.10705731	     -5.16211284	    -12.17028361	      0.43426079	      3.12444377
